<svg xmlns="http://www.w3.org/2000/svg" version="1.1" xmlns:xlink="http://www.w3.org/1999/xlink" xmlns:svgjs="http://svgjs.dev/svgjs" width="1440" height="560" preserveAspectRatio="none" viewBox="0 0 1440 560"><g mask="url(&quot;#SvgjsMask1027&quot;)" fill="none"><path d="M1216 454L1215 198" stroke-width="6" stroke="url(&quot;#SvgjsLinearGradient1028&quot;)" stroke-linecap="round" class="Up"></path><path d="M807 232L806 458" stroke-width="6" stroke="url(&quot;#SvgjsLinearGradient1028&quot;)" stroke-linecap="round" class="Up"></path><path d="M1253 286L1252 690" stroke-width="10" stroke="url(&quot;#SvgjsLinearGradient1029&quot;)" stroke-linecap="round" class="Down"></path><path d="M161 238L160 470" stroke-width="6" stroke="url(&quot;#SvgjsLinearGradient1028&quot;)" stroke-linecap="round" class="Up"></path><path d="M325 183L324 -232" stroke-width="10" stroke="url(&quot;#SvgjsLinearGradient1028&quot;)" stroke-linecap="round" class="Up"></path><path d="M250 378L249 20" stroke-width="10" stroke="url(&quot;#SvgjsLinearGradient1029&quot;)" stroke-linecap="round" class="Down"></path><path d="M815 409L814 76" stroke-width="8" stroke="url(&quot;#SvgjsLinearGradient1028&quot;)" stroke-linecap="round" class="Up"></path><path d="M917 371L916 175" stroke-width="8" stroke="url(&quot;#SvgjsLinearGradient1029&quot;)" stroke-linecap="round" class="Down"></path><path d="M900 480L899 664" stroke-width="10" stroke="url(&quot;#SvgjsLinearGradient1029&quot;)" stroke-linecap="round" class="Down"></path><path d="M381 557L380 146" stroke-width="6" stroke="url(&quot;#SvgjsLinearGradient1029&quot;)" stroke-linecap="round" class="Down"></path><path d="M441 192L440 -113" stroke-width="8" stroke="url(&quot;#SvgjsLinearGradient1029&quot;)" stroke-linecap="round" class="Down"></path><path d="M948 259L947 675" stroke-width="8" stroke="url(&quot;#SvgjsLinearGradient1029&quot;)" stroke-linecap="round" class="Down"></path><path d="M474 241L473 542" stroke-width="10" stroke="url(&quot;#SvgjsLinearGradient1028&quot;)" stroke-linecap="round" class="Up"></path><path d="M935 186L934 46" stroke-width="8" stroke="url(&quot;#SvgjsLinearGradient1029&quot;)" stroke-linecap="round" class="Down"></path><path d="M687 253L686 617" stroke-width="10" stroke="url(&quot;#SvgjsLinearGradient1028&quot;)" stroke-linecap="round" class="Up"></path><path d="M841 2L840 375" stroke-width="10" stroke="url(&quot;#SvgjsLinearGradient1028&quot;)" stroke-linecap="round" class="Up"></path><path d="M815 374L814 519" stroke-width="6" stroke="url(&quot;#SvgjsLinearGradient1029&quot;)" stroke-linecap="round" class="Down"></path><path d="M334 186L333 459" stroke-width="10" stroke="url(&quot;#SvgjsLinearGradient1029&quot;)" stroke-linecap="round" class="Down"></path><path d="M797 346L796 1" stroke-width="6" stroke="url(&quot;#SvgjsLinearGradient1028&quot;)" stroke-linecap="round" class="Up"></path><path d="M168 425L167 822" stroke-width="8" stroke="url(&quot;#SvgjsLinearGradient1028&quot;)" stroke-linecap="round" class="Up"></path><path d="M1306 509L1305 355" stroke-width="6" stroke="url(&quot;#SvgjsLinearGradient1029&quot;)" stroke-linecap="round" class="Down"></path><path d="M64 463L63 312" stroke-width="8" stroke="url(&quot;#SvgjsLinearGradient1028&quot;)" stroke-linecap="round" class="Up"></path><path d="M1183 313L1182 575" stroke-width="6" stroke="url(&quot;#SvgjsLinearGradient1029&quot;)" stroke-linecap="round" class="Down"></path><path d="M1271 228L1270 -147" stroke-width="6" stroke="url(&quot;#SvgjsLinearGradient1028&quot;)" stroke-linecap="round" class="Up"></path><path d="M867 93L866 -90" stroke-width="8" stroke="url(&quot;#SvgjsLinearGradient1028&quot;)" stroke-linecap="round" class="Up"></path><path d="M192 348L191 685" stroke-width="8" stroke="url(&quot;#SvgjsLinearGradient1028&quot;)" stroke-linecap="round" class="Up"></path><path d="M1439 10L1438 -167" stroke-width="10" stroke="url(&quot;#SvgjsLinearGradient1028&quot;)" stroke-linecap="round" class="Up"></path><path d="M1088 393L1087 47" stroke-width="8" stroke="url(&quot;#SvgjsLinearGradient1028&quot;)" stroke-linecap="round" class="Up"></path><path d="M1437 457L1436 181" stroke-width="10" stroke="url(&quot;#SvgjsLinearGradient1028&quot;)" stroke-linecap="round" class="Up"></path><path d="M551 374L550 105" stroke-width="10" stroke="url(&quot;#SvgjsLinearGradient1029&quot;)" stroke-linecap="round" class="Down"></path><path d="M188 249L187 -23" stroke-width="10" stroke="url(&quot;#SvgjsLinearGradient1028&quot;)" stroke-linecap="round" class="Up"></path><path d="M951 357L950 212" stroke-width="10" stroke="url(&quot;#SvgjsLinearGradient1028&quot;)" stroke-linecap="round" class="Up"></path><path d="M409 11L408 339" stroke-width="10" stroke="url(&quot;#SvgjsLinearGradient1029&quot;)" stroke-linecap="round" class="Down"></path><path d="M96 228L95 535" stroke-width="10" stroke="url(&quot;#SvgjsLinearGradient1028&quot;)" stroke-linecap="round" class="Up"></path><path d="M174 102L173 -243" stroke-width="10" stroke="url(&quot;#SvgjsLinearGradient1029&quot;)" stroke-linecap="round" class="Down"></path><path d="M909 448L908 232" stroke-width="10" stroke="url(&quot;#SvgjsLinearGradient1029&quot;)" stroke-linecap="round" class="Down"></path></g><defs><mask id="SvgjsMask1027"><rect width="1440" height="560" fill="#ffffff"></rect></mask><linearGradient x1="0%" y1="100%" x2="0%" y2="0%" id="SvgjsLinearGradient1028"><stop stop-color="rgba(30, 41, 59, 0)" offset="0"></stop><stop stop-color="rgba(30, 41, 59, 1)" offset="1"></stop></linearGradient><linearGradient x1="0%" y1="0%" x2="0%" y2="100%" id="SvgjsLinearGradient1029"><stop stop-color="rgba(30, 41, 59, 0)" offset="0"></stop><stop stop-color="rgba(30, 41, 59, 1)" offset="1"></stop></linearGradient></defs></svg>